<svg id="Objects" xmlns="http://www.w3.org/2000/svg" viewBox="0 0 1102.43 1325.23"><path d="M1115,897.87c-2-8.1-3.07-16.89-4.67-25.48-1,6.23-2,12.48-2.87,18.77-3.89,29.19-.08,83.13,7.59,101.92-1.56-34.74-.66-54.66,4.64-69.05A234.18,234.18,0,0,0,1115,897.87Z" transform="translate(-468.65 -344.63)"/><path d="M1049,660.55c-6.76,19.61-18.19,36.28-31.32,51.79a6.52,6.52,0,0,1,1.62,8.46c-10.41,18.86-18,38.77-20.17,60.33-2,19.54-1.49,40.17-9.84,58.37a5.91,5.91,0,0,1-4.25,3.16c6,24.71,11.39,49.5,8.79,75.28-1.07,10.59-1.94,21.21-2.94,32.38,3.33-1.86,3.57-4.48,4.42-6.8,10.44-28.53,10.48-58.26,10.6-88,.15-34.65,5.45-68.5,18.82-100.62,10.45-25.1,22.06-49.73,32.9-74.68,16.56-38.13,24-77.79,20-120.28-5.53,6.38-2.13,15.11-7.91,21.56-2-10.3-3.25-19.42-5.57-28.26-5.87-22.41-6.24-44.46,1-66.79,7.85-24.28,10.59-49,3.08-74.15-1.11-3.74-3.61-8.14-.57-14,14.34,31.95,27.94,62,22.84,97.4-6.61,45.83,4.17,88.16,30.57,126.32a30.59,30.59,0,0,1,5.45,13.76c5.83,42.37,10,84.76,3.23,127.49,14.92-37.76,18.56-76.11,5.79-115.54a94,94,0,0,1,16.35,40.45c5.39,34.5-4,66.69-17.12,97.71-4.14,9.84-7.74,19.78-10.91,29.83-1.09,8.48-2.36,17-2.47,25.52a220.24,220.24,0,0,0,1.2,24.5c1.89,9.11,3.08,18.46,5.35,27.35,1.1,4.33,1.95,8.71,2.72,13.1.66-.74,1.33-1.47,2-2.19,1,2.17,2,4.37,2.92,6.58,3.75-8.45,7.49-16.91,11-25.46,4.43-10.67,10.19-20.77,14.31-31.56,1.49-3.9,3-7.73,4.53-11.53,3-17.48,5-34.9,4.49-52.71-10.73,24-21.12,48-35,70.35,4.42-15.29,9.87-30.12,15.11-45,9.18-26.12,17.21-52.48,18.32-80.48,1.9-47.74-11.09-90.94-38.5-130-24.84-35.4-36.6-73.76-27.57-117.43,3.07-14.82,1.29-30.1-4.36-44.51-11.62-29.58-28.31-57.47-29-90.82-6.84,12.49-12.07,25.05-12.55,38.46-1.47,40.63-5.19,80.47-18.65,119.53-7.11,20.62,3.13,42.09,9.15,62.48C1055.54,601.31,1059.22,630.84,1049,660.55Z" transform="translate(-468.65 -344.63)"/><path d="M1560.78,1431.87c0-3.63-4-4.25-7.15-4.35q-9.24-.29-18.5-.31c-4.05,0-6.49-2-7.6-5.77-1.22-4.17.86-6.56,4.41-8.18,5.42-2.48,9.26-6.43,12.51-11.51,10.56-16.48,18.31-33.7,17.07-53.85-.12-1.92-.39-4,.18-5.76,2.56-7.84.25-14.81-2.31-22.27-6.43-18.76-13.93-36.49-30.27-49.18-5.64-4.38-10.88-8.5-18.46-8.08-3.52.19-6.66-.51-9.25-3.59-8.43-10-19.73-14.1-32.51-14.67-23.58-1-46.86,1.74-70,6.07-8,1.49-16.08,1.39-24.09,2.33-4.73.56-10.09-2.66-14.88-4.83-2.39-1.08-1.11-3.76.62-4.51,6-2.59,11.81-5.66,18.56-6,10.52-.57,20.29-4.3,30.21-7.42,5.74-1.8,10.44-8,17.91-3,2.67,1.81,8.78-6.55,8.91-11.54.52-20-2.17-39.69-6.87-59.08-2.28-9.41-8-17.39-12-26.13a3.88,3.88,0,0,0-4.76-2.33c-5.67,1.61-9.36-1.33-13.3-4.83-8.15-7.24-19-8-28.9-10-6.18-1.27-9.22-3.19-11.44-9-3.92-10.3-11.89-17.83-19.78-25.27-2.57-2.42-5.19-2.84-8.42-1.34-6.22,2.91-13,4.14-19,8.19-5.65,3.87-12.27,6.34-18.47,9.4-1.73.85-3.71,1.85-5.35.31-2.28-2.13-.52-4.44.7-6.17,3.79-5.38,8.65-9.72,13.74-13.91a210.71,210.71,0,0,0,27.43-27.23,100.63,100.63,0,0,1-30.82,3.53l-11.24-1.51c2.13-8.74,3.74-17.65,5.48-26.51-4.32,2.08-3.06,6.41-4,9.86-1.44,5.34-2.61,10.79-4.07,16.31l-9.23-1.25c.3-19.43-1.27-39-9.09-56.51-20.91-46.85,4.84-85.62,19.49-126.7q.64,6,1.28,12c1.31-16.65,2-33.2-5.1-51-3.75,29.63-12.45,55.74-22.19,81.61-10.89,28.93-11.74,57.72,1.38,86.6a126.06,126.06,0,0,1,11.09,53.6l-.92-.12c-1.93,3.24-3.85,6.5-5.72,9.78-3.07,5.42-4.21,11.49-5.6,17.47,1.09-25.41-6.25-50.15-16.88-74.26-17.24-39.11-20.81-78.06-3.59-118,2.81-6.52,4.43-13.55,7.1-20.13,17.69-43.66,15.48-85.8-9.11-126.41-14.05-23.19-20.07-48.34-19.6-75.51a304.39,304.39,0,0,0-2.94-46.33c-2.57-18.69-5.59-37.51-15.68-54.6,7.57,34.47-4.22,65.65-14.65,97.09-6.22,18.74-3.32,37.24,2.47,55.51a273.57,273.57,0,0,1,10.49,45.19c3.58,25.89-7.54,64.84-24,89.26-1.63,4-3.19,8.11-4.88,12.22-4.14,10.07-9.4,19.62-13.57,29.67-4.88,11.76-10.11,23.37-15.26,35,11.45,35.23,12.46,73.11,25.75,109.55.25-18,.3-33.43-1.7-48.88-1.83-14.07-3.88-28.16-2.42-42.52,3.26-32.31,13.11-62.06,32.39-88.49,24.32-33.34,29.1-69.19,14.85-108.16-7-19.22-12.41-39.1-14.65-59.64-1.92-17.54,4.71-50.71,12.78-61.1,2.54,10.37,2,20.43,1.69,30.32-1,31.18,4.38,60.32,20.83,87.75,21.61,36.05,26.34,74.44,10,114.4-4.26,10.43-6.86,21.52-10.48,32.23-8.89,26.25-12.79,52.78-5.57,80.17,4.17,15.77,7.58,31.76,12.1,47.43,6.56,22.74,7.16,45.32.38,68.05-2.75,9.21-5.63,18.37-9,27.38,2-13.95,3.48-28,5.32-41.93.3-2.34.58-4.57,2.21-6.41,2.94-3.31,2.22-7.08,1.55-11-.59-3.4-1.31-6.89-1.09-10.29.11-1.59.11-3.16.14-4.74-1.13-.28-2.26-.59-3.4-.86-2.25-.06-4.51-.09-6.76-.07-1.43.38-2.86.75-4.28,1.17q-6.67,3.69-13.07,7.85a321.74,321.74,0,0,1,6.4,58.65c.7,31.27-11.56,60.89-31.53,83.85a93.53,93.53,0,0,1,6.87-28.91c10.16-25.18,11.29-35.73,7.44-54.46-10.34,32.43-25,63.63-37.9,96.12-7.15-4.9-8.9-16.61-12.33-16.19-11.54,1.39-6.93-6.91-7.08-10.36-.66-15.38,4.08-29.69,10.82-43.38,8.93-18.15,14.6-37.2,17.16-60.84-8.39,17.13-14.39,31.45-22.13,44.77-13.81,23.73-22.79,51.29-48.72,65.76-3.15-2.35.93-6.64-3.35-8.23-4.4,6-6.28,13.84-14,19.39.63-3.26.82-4.9,1.28-6.46,3.24-11.13,3.21-11.1-1.68-19.63-.56-1-.27-2.45-.33-3.69-1.29-27.66-11.14-54.3-9-82.37-8.46,25-7.71,50.54-4.88,75.92,2.5,22.44-8,36.73-25.24,48.4-4-5.31-1.17-11-3-16.28-4.81,3-2.78,9.73-7.45,13-5.79-11.62-3.74-23.68-4.28-38-8.65,15.74-7.71,29.86-5.32,46.23-12.28-13.65-14.84-28.74-18.39-44.54l-5.36,9.15c-1.57-5.27-.42-9.33.42-13.4,5.27-25.52,9.91-51.27,5.27-77.24-7-39-12.16-77.76-2.21-117.12a81.7,81.7,0,0,0-5.93,16c-6.24,23.4-5.4,47.29-4.85,71.17.59,25.61,0,50.89-10.32,75.23-4.59,10.79-10.16,21.24-14.78,32-1-1.59-2.09-3.17-3.09-4.79-2.22-.29-2.78-2.49-3.32-4.41-.23-.81-.5-1.6-.76-2.39q-4-6.92-7.56-14a36.3,36.3,0,0,0-5.77-5.56c-2.78-2.11-2.71-5-2.42-8.29.11-1.25.15-2.5.22-3.75a210,210,0,0,1-12.52-43.66c-1.78.67-3.59,1.26-5.39,1.88a252.23,252.23,0,0,1,8-101.7,145.15,145.15,0,0,0,5.27-43.48c-8.89,32.31-26.67,61.08-35.69,93.25a75.66,75.66,0,0,0,2.29,48.13c1.58,4.16,3.11,8.35,4.68,12.52,1,21.15,1,42.26,1.36,63.4.11,7.26,2.22,14.33.69,21.75-.25-.16-.46-.34-.72-.5a8.56,8.56,0,0,0-.18,3.64,30,30,0,0,1-3.56,7c-4.28-5-8.35-10.07-12.14-15.28.19-2.45.51-4.91.61-7.35.69-16.52,1-33.23-6.13-48.61-3.06-6.59-7-12.68-7.61-20.12-.06-.71-.14-1.44-.22-2.16a206.3,206.3,0,0,1-23.24,1.84c.14,3.59.36,7.18.72,10.72.76,7.5.22,15.08,1.27,22.54a33.8,33.8,0,0,0,.69,9.5c-3.47,0-4.2-2.59-5.55-4.24-.35-.43-.67-.88-1-1.32-.29.14-.58.28-.88.39a10.3,10.3,0,0,1-10.63-2.29c-2-2-3-4.64-3.92-7.23-.14-.4-.29-.8-.42-1.2l-.09-.27c-.35-.4-.32-.5-.12-.32v0c-.41-.51-.84-1-1.26-1.51-2.13-2.45-4.39-4.79-6.66-7.1a75.25,75.25,0,0,0-6.53-6l-.36-.28-.75-.58-1.51-1.13c-1.46-1.11-2.92-2.22-4.37-3.36a55.3,55.3,0,0,1-10.28-10.34c0,.23,0,.47-.07.7a10.86,10.86,0,0,1-.72,2.2,3.14,3.14,0,0,1-.86.27c-.41-2.44-.75-4.88-1.06-7.32-.09-.15-.2-.29-.28-.44a6.83,6.83,0,0,1-.42-5.83,167.17,167.17,0,0,1,12.18-81.18c1.87-4.53,3.7-9.08,5.64-13.84-4.83-.32-5.58,6-11.32,5.06,8.71-17.85,17-34.9,25.36-52-20,23.78-37.5,48.93-49.72,77.49-8.8,20.59-13.31,40.73-12.91,60.38a179,179,0,0,1-24-14,4.63,4.63,0,0,1-2.15,2.41,4.76,4.76,0,0,1-2.14.7c-6.93-28.44-10.9-57.94-30.07-81.76,6.32,19.56,7.46,39.94,10.3,60-8.66-7.1-17.07-14.36-25.18-22-2.76-.33-4-2.81-5.37-5.12-1.26-1.22-2.5-2.47-3.75-3.71a5.59,5.59,0,0,0-2.63-.3c-.26.94-1.15,2.5-.75,3,8.74,10.35,9,25.18,19.56,34.87,13.65,12.46,24,28,35.43,42.44,2,2.55,3.56,5.44,1.31,8.37-2.1,2.74-5,1-7.46.21-9.87-3-20-4.52-29.86-8.33-9-3.5-19.6-3.06-29.28-5.76-6.66-1.86-13.46-3-19.55-6.64-10-5.9-20.82-4.27-31.45-2.84-5.22.71-10,.63-14.24-2.61-4.47-3.39-8-1.77-10.86,2.1-2.93,4-5.75,8.13-7.32,13-5.18,16.09-10.81,32.05-15.84,48.19-4.48,14.34-1.42,20.54,11.94,26.77,12.2,5.69,22.43,14.77,34.79,20.28,3.85,1.72,7.46,3.75,13.72,4.56-10.78-10.66-14.63-25.11-29.06-30.68-4.8-1.86-8.67-6.29-12.72-9.83-5.68-5-6.49-15-.31-23.19,5.31-7,7.94-14.85,10.81-22.78a8.32,8.32,0,0,1,1.45-3.12c2.8-2.71-5-7.41,2-9.35,7.28-2,14.13-6.73,22.16-2.59,13,6.72,26.93,11.37,40.56,16.58,10.36,4,21.18,6.7,32.13,10.08.44,2.71-5.58,4.55-1.26,8.25,2.5,2.14,5.79,1.84,9.07,4.49-9.51,1.1-17.42-1.84-25.28-4.34a49.57,49.57,0,0,0-18.23-2.11c-1.91.11-4.1.27-4.35,2.74-.17,1.62,1.15,2.82,2.51,3.57,7.41,4.07,14.37,8.86,22.3,12.09,17.5,7.11,35.88,11.14,54,16.2,8.3,2.32,16.79,4.27,23.91,9.87,4.21,3.31,10.39,2.89,14.69,6.41,1.44,1.18,3.41,2.39,2.77,4.63-.74,2.55-3,1.89-4.78,1.45-9.59-2.33-19.06-1.75-28.54.74-12.94,3.4-26.17,5.16-38.88,10.28-8.17,3.29-17.95,3.58-26.95,5.54-9.44,2-18.91,3.43-28.6,3a12.72,12.72,0,0,0-5.7.62c-14,6.41-27,.53-40.11-3.11-14.78-4.11-28.94-6.83-45-5s-21,12-24.4,22.92c-4.3,13.75-7.76,28.31-5.62,43.14,1.65,11.4,3.67,22.76,5.89,34.06.84,4.25,1.49,8.23-.38,12.29-12.27-.33-24-2.19-35.63-4.33-1.9-.34-3.75-1.06-5.64-.25-2.12.91-2.92,2.42-1.55,4.53,1.09,1.68,2.78,3.32,4.6,3.19,7.76-.56,13.87,3.94,20.69,6.25,3.07,1,6.14,2.16,6.5-3,.2-3,2.51-2.19,4.34-1.84,16.2,3.07,32.12,7.66,48.65,9a4.63,4.63,0,0,1,2.17.72c1.26.87,2.69,2,2,3.69a2.66,2.66,0,0,1-3.85,1.34c-7.17-4.67-15.72-3-23.38-5.38-3-.92-6.09-1.23-9.06,0a3.75,3.75,0,0,0-2.15,2.36,3.17,3.17,0,0,0,1.62,2.63c6.45,1.3,12,7,19.65,3,3.62-1.86,8,.45,11.85,2.64,6.46,3.65,6.63,3.36,10-4.53a2.55,2.55,0,0,1,2.51-1.86c.7,0,2,.54,2,.86.36,11.85,9.85,12.89,18,17.08,10.11,5.22,19.7,5.2,30,3.44.2,0,.31-.62.67-1.42-2-3.64-5.74-4.07-9.55-4.27-9.7-.52-18-5.87-27.23-8a3,3,0,0,1-2.31-3.51c.39-1.94,2-2.2,3.55-1.88,4.88,1,9.94,1.62,14.55,3.37,17.92,6.78,37.41,8.74,54.55,17.9a12.88,12.88,0,0,0,4.4,1.19c1.56.19,3.11-.22,3.77-1.88s-.6-2.87-1.73-3.9c-3.26-3-8.91-2.83-10.46-8,4.61-.31,8.26,2.55,12.39,3.84,7.94,2.48,10,.25,8.33-8.57,7.23-.68,13.55,1,18.15,7l0,0c-7.86,6-15.82,11.87-24.23,17.19-18.8,11.89-34.79,27.17-49.76,43.51-1.73,1.89-2.41,4.71-3.75,7a29.43,29.43,0,0,1-7,8.27c-6.69,5.5-10.68,13.74-13.95,21.77-2,4.77-1.94,10.34-2.78,15.56,5.08,1.25,4.37,5.5,4.25,9.13-.3,8.52.11,17,2.68,25.12,2.84,9,7,17.14,15.1,23.34a37.61,37.61,0,0,0-1.23,9.48c0,11.23,22.48,35,32.47,43.71s20,11.24,38.71,21.23,18.74,7.49,31.23,11.24,17.48,7.49,27.47,5.49c4-.81,16.12-1,29.14-.86l-2.4-.4c-21.43-3.69-58-14.22-58-14.22s-38.72-22.48-43.71-31.23-13.74-3.74-16.24-10-16.23-16.23-20-18.73-13.74-25-13.74-25-.29.46-.73,1.26c-.22-.76-.44-1.52-.62-2.26-2.63-10.38-1.87-20.59.84-30.77a22.73,22.73,0,0,1,2.14-5.24c1.11-2,5.56-2.86,2.39-6.16a5.59,5.59,0,0,0-7.4-.92c-1.26.79-2.41,2-4.3,1.54-2.66-2.4-.44-5.1.29-7.24,3.81-11.27,8-22.4,12.17-33.56a6.84,6.84,0,0,1,1.86-2.88c11.31-9.2,19.24-21.92,31.47-30.14,5.68-3.82,11.25-7,18.68-7.79,6.58-.68,13.31-4.13,19-7.83,6.52-4.22,13.56-6.88,20.69-9.29,10.79-3.67,22.14-2.93,32.89-.4a61.87,61.87,0,0,0,11.66,1.45c13.55.67,27.53.71,39.08,10,4.69,3.76,10.37,6.27,15.53,9.17,21.28,12,33.77,29.47,41,52.65,4.32,13.74,8.39,26.94,7.92,41.44-.19,5.9-2.24,11.28-3,17-.29,2.18-2,4.29.32,7,8.78-1.57,8.13-11.94,14.06-16.29,5.43,14.54,3.55,33.29-5,44.49A30.42,30.42,0,0,0,881,1533.3c-5.35-2.83-7.27-7-5.83-13.18,2.38-10.22-.81-19.48-5-28.82-6.69-14.87-16.13-27.89-26-40.55-8.85-11.31-20.67-19.46-32.85-26.86-3.59-2.18-8.31-2.55-12,.48-2.27,1.88.71,8.72,5.45,11.38,19.6,11,34.15,27.35,45.93,45.8,14,22,15.15,45.62,2.19,68.83-4.86,8.71-14.18,8.4-22.64,7.79s-16.62-2.28-25.45-3.57c-.46,3.86,2.1,5.05,4.1,6.43,7.93,5.48,8,5.45,1.38,13.64,11.41-1,22,2.29,32.56-.31,5.65-1.4,10.55-1,15.56,1.92-.89,4-4.71,3.78-7.24,4.37-6.83,1.59-13.63,3.06-19.87,6.21v-3.92s-20.41,2.41-28.26,6l3.67.06a33.36,33.36,0,0,0-7.2,1.12c.33,1.15.42,2.37.72,2.42q15.09,2.76,30.23,5.26c1.43.23,4,.25,4.31-.46,5.17-10.67,15.82-5.12,23.61-7.6,7.48-2.38,15-3.14,20.54-9.69,2.71-3.21,6.5-5,11.4-3.11,3.89,1.47,8.24,1.84,12.42,2.4,3.76.5,7.31-.33,7.74-4.81.38-4-3.26-4.82-6.12-5.77-4.72-1.57-10,.84-15.12-2.22,1-5.42,4.63-7.75,9.68-7.48,9.07.51,18-.81,27.24,2.79,6.08,2.36,14.21-.33,21.39-1.09,2.15-.23,3-2.44,2.54-4.49-.63-2.67-1.92-5-4.88-5.92-2.79-.84-5.32.31-7.91,1-11.52,2.91-21.9-2.36-32.68-4.62a2.8,2.8,0,0,1-2-3.66c1.44-4,3.33-8.25,7.88-9.09,5.6-1,11.51-1.94,17.08-1.25a289.64,289.64,0,0,1,29.37,5.77c9.12,2.12,9.95,2.75,9.54,12.66-.72,17.28,4.12,32.61,13.76,46.75,7.65,11.24,16.53,21.17,27.92,28.8,4.29,2.87,9,5.08,13.84,5.51,6.7.6,11.08,4.09,16,8,19.11,15,41,23.33,64.92,27.94,21,4,41,.49,60.11-6.16,11.63-4,21.58-13.11,32-20.3,4-2.78,6.76-6.68,13-5.89,4.21.54,6.54-3.81,5.5-8.24-1.82-7.82,3.59-13,6.54-19,1.32-2.72,4-3.43,6.94-2.89s6,1.31,9,1.76a4.94,4.94,0,0,0,3.29-.62c6-4.31,6-4.25,9.9-4,5,.36,10.15,1,13.6-4a6.34,6.34,0,0,1,4.88-2.69c14.53-1.46,28.93-4.72,42.94-7.95,21.35-4.91,42.86-2,64.06-5.42,7-1.11,14.36.55,21.55,1,1.53.09,3.06.54,4.58.5,3.15-.09,6.66-.41,6.76-4.52.08-3.52-3.12-4.17-5.82-4.24-7.31-.17-14.81-1-21.93.18-18.41,3.12-36.91,1.23-55.34,2-6.1.24-12.52-1-16.61,5.37a3.11,3.11,0,0,1-2,1c-20,3.08-39.59,10.82-60.21,6.94-5.32-1-10.57,1.64-16.89-1.12,6.15-4.13,11.82-5.22,17.91-4.09,2.28.43,4.47,1.32,6.77.52,1.87-.64,3.49-1.75,3.59-4a3.89,3.89,0,0,0-3.34-4.1,42.89,42.89,0,0,0-8-.77c-3.85-.09-7.72.08-10.86-3a7.15,7.15,0,0,1,7.84-3.67c12.35,2.06,16.44-6.27,20.87-15-3.85-1.62-5.69.67-7.73,2.3-5.71,4.58-12.21,3.78-18.7,2.7a2.65,2.65,0,0,1-2.4-3.26,3.74,3.74,0,0,1,2.3-2.23c3.72-.87,7.58-1.2,11.26-2.2a4.46,4.46,0,0,0,3.49-4.18c-.06-2.24-2-3-4-3.46a10.74,10.74,0,0,0-1.13-.22c-3.91-.53-10.31.89-9.22-5.17.63-3.48,7.21-3.46,11.26-2.84,10.23,1.56,19.56,5.74,28.86,10.29-2.09,4.33-8.49,1.31-8.92,7.69,10.49.22,21.48-5.52,33.09,2.44-6,2-10.78,4.26-15.94,3.75-8.13-.81-13.66,4.54-20.18,7.55-2.48,1.15-2.92,3.4-2.1,5.85.71,2.15,2.58,2.67,4.57,2.82,2.36.19,5.28.28,6.33-1.86,3.4-6.88,9.46-5.3,15.33-6.68a84,84,0,0,1,41.07.15,18,18,0,0,0,9.11-.28c12.09-3.08,24.4-2.83,36.74-2.74,3.82,0,9.87,2.07,10.28-4s-5.71-4.76-9.61-5.57a5.41,5.41,0,0,1-1.14-.61c-1-3.38,1.89-4.8,3.83-6.06a61.3,61.3,0,0,0,22.05-24.39c2.41-4.76,5.76-9.06,8.77-13.5,6.78-10,6.92-21.81,9.39-33,.33-1.49.24-3.08.46-4.6.36-2.46,1.53-4.36,4.1-5,2.78-.66,4.13,1.2,5.51,3.17,1.58,2.28,2.74,4.44,2,7.46-.61,2.5-1.21,5.29.85,7.62a4.3,4.3,0,0,0,4.23-3.41c1.64-8.68,2.59-17.47-.43-26.06-2.1-6-1.71-7,4.73-7.6,6.11-.58,12.22-.25,18.3-2,5.2-1.5,11.48,1.08,15.67-4.58.63-.84,3-.87,4.43-.56,9.95,2.23,20-1.63,29.72.07,7.59,1.33,14.24-3.47,22.17-1.07,6.74,2,14.51.73,21.83.84,5.76.09,11.5-.09,17.22-3.6C1565.34,1439.69,1560.68,1439.25,1560.78,1431.87ZM576.22,1287c-11,6-19.87,2.22-23.62-9.74-5.13-16.34-4.58-33.36-5.5-50.11a38,38,0,0,1,3.14-18c2.2-4.67,3.84-9.53,10.76-7.25,1.14.37,2.78-.93,4.23-1.26,4.66-1.06,8.23,1.68,7.76,6.36a15.31,15.31,0,0,1-4,9c-8.88-7-12.31-6.16-13.39,3.94-1.22,11.39-3.75,22.74-2.79,34.32.63,7.6,4.63,11.21,11.86,11,5.52-.18,6.79-2,4.62-7.19-1-2.32-3.63-4.22-1.42-7.19,4.39-.18,7.2,1.39,8.51,5.89a10.14,10.14,0,0,1-1.75,9.63C566.65,1277.45,566.74,1277.51,576.22,1287Zm250.25,302.71c-3,2.11-6.54,1.59-10,.49a27.38,27.38,0,0,0-5.88-1.08c6.64.15,12.42.31,16.18.42Zm46.73-24.88c-.49.19-1.23-.25-1.86-.41.33-.61.5-1.44,1-1.78.87-.58,2.1-1,2.25.69C874.64,1563.81,873.8,1564.6,873.2,1564.83Zm11.06-25.38c-1.72.2-2.56-1.13-2.79-2.7a28.06,28.06,0,0,1-.19-3,19.13,19.13,0,0,1,3,0c1.53.23,2.93,1,2.77,2.75A3.18,3.18,0,0,1,884.26,1539.45Zm637.05-217.27c2.66.52,3.06,2.09,3.44,3.49,3.23,11.72,2.41,23.52.35,35.28-.93,5.3-2.29,10.54-5.38,15.07-4.67,6.85-12.59,6.62-16.58-.69a29.81,29.81,0,0,1-3.94-15.82c4.29,2.7,6.3,8.52,11.71,6.79s6.24-7.08,7.44-12c1.84-7.62.93-15.29,1.21-22.93C1519.67,1328.16,1518.79,1324.6,1521.31,1322.18Zm-30.87-42.85c5.67-5.75,12.82-6.75,20-6.86,6.07-.09,8.92,5.13,4.84,9.07-6.76,6.53-2.9,12.64-.94,18.94.77,2.5,2.85,4.55,4,7,1.81,3.73.42,5.92-3.69,6.2a17.59,17.59,0,0,1-4.58-.27c-5.5-1.06-8.52,1.35-7.73,6.7.89,6-3.17,9.94-4.87,14.9-4.26-9.94-4-13.86-.38-22.13,2.94-6.66,5.69-13.41,8.36-20.19a4.33,4.33,0,0,0-1.19-5.25,4.05,4.05,0,0,0-5.31.3c-4.88,4.22-10.82,7-14.66,12.75-3,4.57-5.7,9.58-9.87,13.55C1473,1299.24,1480.88,1289,1490.44,1279.33Zm-22.12,49.74c.12-.68,1.32-.56,1.65.28.48,1.2-.2,2-1.18,2.58A7.21,7.21,0,0,1,1468.32,1329.07Zm-64.74-180.94a26.93,26.93,0,0,1,5.15,8.95,85.46,85.46,0,0,0,11.2,21.23c4.78,6.65,5.12,14.37,4.73,22.13-.19,4-2.52,6.51-6.51,6.87-13.74,1.23-27.33,3.73-41.2,4a83.15,83.15,0,0,0-42.69,11.94c14.41-1.68,26.24-2.35,37.75-4.61,11.81-2.33,23.38-1.78,35.28-.18a35.78,35.78,0,0,1-16.89,7.57c-14.44,2.16-28.89,4.27-42.41,10.36-4.44,2-8.76,1.1-13.14-1.56-9.25-5.64-19.42-8.45-30.24-10.26-10.26-1.72-20.18-3.88-30.5-1.13-.53.14-1.29-.58-1.95-.9,7.2-5,7.25-4.68,14.36-5.64a295.67,295.67,0,0,1,39.1-2.78c5.66,0,10-2.09,12.81-8.19-11.93-1.86-23.3.71-36.84-2.42,19-8.71,36.42-11.9,53.91-14.51,9-1.34,15.91-4.85,21.85-11.42,3.18-3.52,4.79-7.29,2.87-11.54-2.2-4.87-6.49-3.78-10.94-3.25-14.86,1.75-29.34,6.25-44.5,5.91-2.74-.07-5.31.73-7.74-3.13a13.91,13.91,0,0,1,2.8-1.5c11.45-3.26,22.89-6.52,34.38-9.63,13.87-3.77,28.38-4.51,42.18-8.69C1399.37,1144.84,1401.63,1145.94,1403.58,1148.13Zm-138.5,44.13c3-3.82,6.79-5.15,11-6.07,10.78-2.37,21.55-4.81,32.23-7.61a42.21,42.21,0,0,1,11.86-1.14c-8.41,4.71-15.79,11.79-26.39,11.49C1284.17,1188.66,1275.45,1196.48,1265.08,1192.26Zm6.63,80.83c.31.1.8.1.91.31.39.75.08,1.35-.8,1.56a1,1,0,0,1-.89-.27C1270.52,1273.91,1270.83,1273.35,1271.71,1273.09Zm27.34-99.74c.61-2,2.34-2.64,4.3-2.7,1.21.22,2.28.84,1.64,2.12a4.6,4.6,0,0,1-4.28,2.88A1.78,1.78,0,0,1,1299.05,1173.35Zm18.11-67.39c3.54-1.27,7.49-1.46,8.48-6-3.31-3.11-6.61,1.25-10.74-.64,4.55-5.61,10.11-7.22,15.57-8.89a7.45,7.45,0,0,1,4.46-.23c5.8,2.27,7.16,7.8,8.27,13s2.11,11.24-3.18,14.82a120.58,120.58,0,0,1-18.14,9.81c-5.2,2.33-6.28,1.32-6.65-4.86-.1-1.7-1-2.61-1.88-3.85C1308.19,1112.15,1309.07,1108.87,1317.16,1106Zm-33.73,7.87a11.6,11.6,0,0,1,6.77-7.45,4.79,4.79,0,0,1,6.07,1.95c1.69,2.58.07,4.37-2.06,5.6-2.64,1.54-5.33,3.13-8.6,2.9C1283.61,1116.75,1282.83,1115.62,1283.43,1113.83Zm-36.58,11.39c3,1.22,6.1,1.9,9.58-.28-3.28,5.27-9.18,6.13-13.89,9.09Q1244.76,1129.56,1246.85,1125.22Zm-1.16,36.28c6.79,1.94,13-.23,19.18-2.08,17.58-5.24,36.06-7.38,52.48-16.87,5.46-3.15,11.49-5.73,17-9,6.34-3.77,12.77-7.78,20.27-2.45,2.31,1.65,4.59.68,6.43-.64,8.4-6,15.66-1.18,23.17,1.4.06,1.07.13,2.13.19,3.2q-21.65,5-43.31,10-8.4,1.93-16.79,4c-12.21,3-23.51,9.26-36.34,10.18a12.87,12.87,0,0,0-5.29,2c-11.45,6.83-24.56,8-37.16,10.84-3.69.83-5.81-1.42-5.6-5.32C1240.14,1163.16,1241.75,1160.37,1245.69,1161.5Zm6.4,153.17-1.84-.25c-.38-.83-.17-1.46.69-1.72.3-.1.94,0,1,.14A11.13,11.13,0,0,1,1252.09,1314.67Zm-5.58-14.58c-.12,1.26.22,2.85-2,2.67a1.08,1.08,0,0,1-.71-.73C1243.66,1299.84,1245.25,1300.2,1246.51,1300.09Zm-3.52-8.86c-.75-1.38-.76-2.77.62-3.82a1.21,1.21,0,0,1,1.06-.11c1.75,1,1,2.4.49,3.73-.22.57-.5,1.11-.77,1.66A6.88,6.88,0,0,1,1243,1291.23Zm-4,34.49c9.77,9,18.1,17.07,28.82,22.41,17,8.48,34.58,16.12,50.59,27.75-6.07,1-11.18,0-16.42-1.63-15.72-5-28.44-14.86-41.15-24.68-5.78-4.46-11.25-9.4-18.1-12C1236.81,1335.3,1236.78,1331.72,1239,1325.72Zm-10.59,29.61c7,8.89,15.78,12.08,26.15,11.38a36,36,0,0,1,26.59,8.62c10.42,8.61,22.34,13.22,36,13,3.06,0,6.13-.08,9,1.56,5.31,3.1,5.66,6,.75,10.13s-10.38,7.84-15.28,12.09c-7.29,6.34-7.09,6.39-14.68-.34-7.16-6.37-14-13.94-23.61-16-11.64-2.47-20.24-9.09-27.85-17.31-7.35-8-15.7-14.6-24.36-21a78.27,78.27,0,0,1-21.47-23.48C1209.92,1340.27,1220.94,1345.8,1228.45,1355.33Zm-26.8-72.06c.16-.42,1-.55,1.63-.81.25.58.83,1.28.67,1.7s-1.06.54-1.64.8C1202.06,1284.38,1201.49,1283.69,1201.65,1283.27Zm19.28,10.2c.8.47.77,1.11-.16,1.36-.54.15-1.22-.2-1.94-.34a6.66,6.66,0,0,1,1.12-1.13A1.16,1.16,0,0,1,1220.93,1293.47Zm-.72-44.3c.17-2.92,2.63-3.31,4.63-3.93,2.32-.71,4.7-.39,4.85,2.64.11,2.16-1.73,3.14-3.75,3.23S1221.43,1251.94,1220.21,1249.17Zm-18.47-15.75c8-7.27,18.49-6.17,28-8.42,2.45-.59,5.61-2.34,6.91,1.23s-1.42,5.74-4.11,7.29a11.55,11.55,0,0,1-5.44,1.48,182.21,182.21,0,0,0-23.89,2.17c-3.25.46-6.89,1-10.46-2.36C1195.77,1231.63,1199.2,1235.74,1201.74,1233.42Zm-43.72,126a11.36,11.36,0,0,1,2.2,1.92c.21.29-.37,1.14-.6,1.74l-2.37-1.59Zm14.74,96.12c-11.37-10.8-13.89-23.82-16.15-36.93C1162.53,1425.08,1172.51,1446.76,1172.76,1455.5Zm-17.5-42c1.17-.24,1.07,1.46,1.13,2.44a12.69,12.69,0,0,1-.1,1.84,7.67,7.67,0,0,1-1.27-1.48C1154.49,1415.29,1154.06,1413.7,1155.26,1413.46Zm-13.55-28.63c1.16-.71,2.09,0,2.42,1.16a2.25,2.25,0,0,1-1.14,2.81,1.83,1.83,0,0,1-2.13-2A2.56,2.56,0,0,1,1141.71,1384.83ZM1139.14,1222q-2.48,1.17-5,2.24c-.43.18-.88.34-1.32.52a7,7,0,0,1-1.31-1.22c-.75-.94-1.77-1.66-2.22-3.58C1132.61,1220.51,1135.89,1221.21,1139.14,1222Zm-18,6.83c-3.77,1.11-7.62,2-11.53,2.82-1.7-1.87-3.54-3.79-5.44-5.95C1111.06,1223.87,1116.15,1226.47,1121.13,1228.79Zm-55.23,32.57c.27,1.12.51,2.26.77,3.4.4,1.75,1.1,3.58,3.85,3,8.12-1.84,11.64,4.35,13.79,9.85a146.63,146.63,0,0,0,11.92,23.23c2.09,3.41,2.44,6.91,2.66,10.58,5.39-1.26,10.6-1.25,14.92,2.83,1.94,1.83,3.14,3.19.56,6.54-4.09,5.32-9.07,3.5-13.68,3,9.6,25.15,26.21,46.66,29.62,74-6.83-1.33-6.43-11.49-15.25-9.89,9,12.31,14.5,25.65,20.85,38.56,1.16,2.37,1.66,4.32-.42,6.15a5,5,0,0,1-6.4.27,20.42,20.42,0,0,1-7.14-8.79c-6-13.67-11.62-27.6-18.8-40.65a317.27,317.27,0,0,1-22.93-52.27c-7.68-22.84-11.6-46.62-18.29-69.68Zm42.41,166.78a2.83,2.83,0,0,1-3.76-1.67c-2.64-6.87-5-13.84-7.52-20.77l2.14-.94c4.61,5.77,7.18,12.77,10.29,19.43A2.9,2.9,0,0,1,1108.31,1428.14Zm-26.79-40.78c-.11.32-.12.82-.34.94-.78.43-1.4.11-1.62-.81a1,1,0,0,1,.3-.92C1080.67,1386.13,1081.25,1386.45,1081.52,1387.36Zm-20.71-7.24c-.11-.8,1-2.09,1.82-2.62a2.87,2.87,0,0,1,4,1c2.78,4.35,2.86,9,2.67,14.18-.39,10.34-1.35,21.65,10.57,27.55a17.92,17.92,0,0,0-6.24,6.18c-2.22,3.61-4.51,8.27-9.48,6.7-4.61-1.45-4.66-6.46-4.85-10.76C1058.71,1408.24,1062.75,1394.29,1060.81,1380.12Zm.66,74.5c4-8.13,7.48-10.14,15.21-6.46,4.17,2,7.17,2.15,10-1.6s8.79-4.67,9.63-2c2.49,8,8.83,3.53,13.18,5-3.59,7.52-3.59,7.5-10.89,7.76-13.12.48-26.91-3.19-39.2,8.16C1058.42,1459.72,1060.11,1457.36,1061.47,1454.62Zm45,12.61c-1,4-3.23,3.58-4.93,3.71-5,.38-10.06,0-14.91.91-7.47,1.45-15.14,2.52-21.82,6.79-1.87,1.2-4.8,2.59-6.21.21-2-3.28,1.51-4.49,3.66-5.84C1076.16,1464.32,1091.11,1466.26,1106.5,1467.23ZM1051,1278.47c4.7,8.91,7.57,17.07,8.07,25.92.09,1.44-.19,3.15-2.16,3.45a3.09,3.09,0,0,1-3.45-2.34C1050.71,1297.14,1048.72,1288.67,1051,1278.47Zm.56,56.06a235.22,235.22,0,0,0,3.91,32.27c.33,1.73-.2,3.13-1.91,3.65s-2.84-.57-3.39-2.18c-2.1-6.18-2.36-13-4.36-18.85C1043.53,1342.83,1045,1339.48,1051.51,1334.53Zm-36.86,47.69c1.77-12.63,7.1-24.43,9.23-36.82,4.75-27.64,7.87-55.53,10.47-83.46,2.39,0,4.78,0,7.17,0a16.44,16.44,0,0,0,.58,9c1.5,4,1.85,8.7-.53,12.34-3.48,5.3-3.08,11-3.17,16.69-.18,12.6.63,25.32-.89,37.75-1,8.47-.5,16.79,3.33,23.31s2.11,17.49,13.42,19.26c2.53.39,3.41,4.38,2.07,7-2.07,4-4.43.6-6.61-.32-1.18-.5-2.18-.45-3.61,1.06-.55,3.41,1.47,6.82,2.64,10.35.58,1.76,2.9,3.32,1.89,5.16-5,9.1-2.09,18.88-2.76,28.33-.33,4.73-1.93,7.48-6.79,9.28-10.73,4-20.94,8.68-30.18,16.15-4.57,3.68-6,10.61-13.16,12a16.7,16.7,0,0,1,.82-12.21c1-2,2.38-4.15,2.57-6.31,1.47-17.25,8.69-33.27,10.49-50.45C1012.27,1394.28,1013.81,1388.29,1014.65,1382.22Zm-6.14-105.87c.56.28,1.41.41,1.62.85a2.1,2.1,0,0,1-.82,2.8,1.42,1.42,0,0,1-2.25-1.13A2.37,2.37,0,0,1,1008.51,1276.35Zm-69.73-125a3.72,3.72,0,0,1,3.35,3.83c-.08,1.63-.5,3.52-2,4.3q-.75-4.07-1.51-8.12Zm-67.41,32.49a16.52,16.52,0,0,0,1.75,2.52c.28,2.88.45,5.89.51,9C871.1,1191.82,869.74,1188.52,871.37,1183.86Zm-178.65,18.47a33.06,33.06,0,0,0,13.47-2.77c9.95-4.57,22.34-2.44,30.69-11.3.69-.73,2.12-.91,3.25-1.06,19.55-2.52,38.88-2.48,57.53,5.1,1.38.56,2.82,1.19,2.86,4-8.7,2.71-17.59,2.31-26.49.18-2.56-.61-4.87-2.63-7.69-1.86-8.3,2.3-16.87.33-25.56,2.32,17.05,2.78,34.28,5.5,53.2,10.4-16.24,5.68-18.05,5.67-25.27,2-13.81-7-27.36-8.58-40.65,1.58-3.25,2.49-6.7,5.23-11.28,5.4-10.77.41-21.72,1.59-32.24-.53-6.93-1.4-14.68.12-22.31-5C673.15,1207.52,682,1202.29,692.72,1202.33Zm-77.82,107a1.11,1.11,0,0,1,.57-1.83c1.41-.54,3-.8,4.18.19,1.35,1.12.45,2.45,0,3.69C617.82,1311.18,616,1311,614.9,1309.33Zm5.26,2.26c5.68-.41,11.28-.51,15.57,4.25A30.25,30.25,0,0,1,620.16,1311.59Zm16.19,4.34c2.28-1.13,4.68-2.48,7.17-1.36,9.43,4.22,20.3,4.5,29.06,10.5C659.77,1325,647.93,1321,636.35,1315.93Zm48.49,2.24c-.93-.12-2.63,0-2.39-1.08s1.85-.66,2.79-.12a6.26,6.26,0,0,1,1.38,1.25A11.77,11.77,0,0,1,684.84,1318.17Zm2.34.29c2.43-.08,4.84-.08,6.58,2.06C690.77,1322.4,688.51,1322,687.18,1318.46Zm26.9,8.08a6.73,6.73,0,0,1-1.6,1,7.54,7.54,0,0,1,.32-1.79c.42-1.07,1.1-2,2.32-.92A4.3,4.3,0,0,1,714.08,1326.54Zm12-55.51c-10.4-.65-22-1.15-31.78,3.38-27.93,13-57.12,13.69-86.89,11.38-4.44-.34-6.6-1.78-5.11-6.43,5.91-18.43,2.2-36.4-2.46-54.37-1.14-4.42-1.6-9-2.52-14.33a43.79,43.79,0,0,1,17.33-.58c3.12.46,5.25,2.62,1.88,5.48-5.07,4.31-2.48,6.56,2.06,7.71s9,2,13.51,2.86c14,2.72,28.47.9,42.4,4.29,16.61,4,33.19,5.39,50,.32,3.63-1.1,7.36-.58,9.56-4.92,1.6-3.14,5.41-2.27,8.45-2.14,2.87.13,3.19,2.19,4,4.58,1.55,4.53,5.68,4.87,9.51,3.32,5.24-2.11,9.94.16,14.64,1.39,3.37.88,5.66,6.76,10.15,1.42,1-1.12,3.39.28,3.46,1.8.5,10.58,7.88,13,16.37,14.81a6.56,6.56,0,0,1,5,4.92c-2.94,4.31-8.17,6.33-12.16,9.79a6.49,6.49,0,0,1-8.55.35c-8.42-6.22-18.19-5.17-27.74-5.22-4,0-7.3,1.25-8.62,6a53.71,53.71,0,0,0,21.53,5.18c2.15.09,5.16-.35,5.63,2.66.42,2.72-2.22,3.72-4.2,4.81a8.11,8.11,0,0,1-8.72,0C751.5,1272.89,738.46,1271.81,726.08,1271Zm154.85,123.61c-6.3-5.66-11.57-12.17-17.2-18.4a131.84,131.84,0,0,0-47.47-33.81c-2-.85-5.8-2-4.94-3.93,1.83-4.2-.49-5.24-3.1-7.06-3.62-2.52-3-5,.78-6.85,2.76-1.33,5.8-2.2,8.33-3.86,2.35-1.54,6.46-2.5,5.11-6.58-1.11-3.38-5.6-4.75-7.61-3.86-6.78,3-14.88,1.94-20.79,8.2-4.08,4.31-4.2,7.35-1.21,11.45-3,0-5.66,1.33-8.48,1.74-8.3,1.18-16.11.14-22.54-6.28,3-3.13,6.4-2.06,9.1-3.31,5.29-2.44,11-9.36,9.16-12.5-3.3-5.62.39-7.32,3.74-9.64,1.59-5.32,6.36-7.29,10.54-9.82,7.25-4.39,16-6.81,22.36-11.76,15.41-12,33.79-18.1,50-28.23,9.79-6.12,21.3-8,31.47-13,2.45.5,4.9,1,7.36,1.5-15.93,10.66-28.58,24.9-39.25,41.67,4.92,1.12,8.41-1.29,11.56-4,13.76-11.76,31.82-17.11,44.75-30.11a4.17,4.17,0,0,1,3.08-1.31,8.68,8.68,0,0,0,6.35-1c7.64,1.5,15.27,3.07,22.83,4.88,1.16,4.23,5.78,4.65,9.86,4.94a7.06,7.06,0,0,1,2.07.86c-1.53,5.47-6.29,8.75-9.89,12.26-5.35,5.21-6.19,9.63-2,16.11,4.13-1.82,8.32-3.43,11.78-6.49,1.38-1.22,2.5-3.79,4.58-2.51,3.75,2.31,6.18,2.3,8-2.15.61-1.44,2.63-1.69,4.07-.83s1.67,2.48,1.6,4.08a7,7,0,0,1-3.45,5.67c-4.74,3.21-10.34,5.14-14.93,8.06-4.26,2.71-4.09,10.5-8.74,14.44-8.2,6.93-12.09,17.68-21.16,23.91-1.49,1-2.38,3-3.41,4.62-1.16,1.84-3.59,3.72-1.67,6,1.66,2,4.66,1.67,6.39.26,8.77-7.16,19.83-7.93,30-11.2a45.43,45.43,0,0,0,12.4-6c6-4.2,12.17-8.09,18.3-12.07,2-1.3,4.06-2.35,6.25.23a11.49,11.49,0,0,1-6.62,8.74c-10.08,4.46-16.9,13.43-26.06,18.57-11.72,6.58-20.52,16.33-30,25-14.55,13.24-29.06,26.12-46.27,35.76C889.58,1400.6,886.8,1399.92,880.93,1394.64Zm111-46.52c.19,3.35-1.85,4.81-5,4.84a27.6,27.6,0,0,1-4.15-.54c-.48-2.27.73-3.35,1.84-4.34,1.64-1.46,3.12-3.7,5.76-2.71C991.16,1345.65,991.85,1347.14,991.91,1348.12Zm-21.71,14.33c-.11.47-.91.78-1.4,1.16a1.08,1.08,0,0,1-.75-1.7,1.28,1.28,0,0,1,.83-.58C969.73,1361.18,970.39,1361.65,970.2,1362.45ZM917,1524.91c5.12-4.49,8.63-1,12.26.67C925.34,1526.49,921.4,1527.36,917,1524.91Zm51.35-2.4c-1.39,3.48-4,4.53-7.46,3.32-9.71-3.4-20-5.19-29-11.25,11.77,0,22.57,7.08,34.81,4.61C968.45,1518.83,968.94,1520.91,968.3,1522.51Zm3.2-14.81c-1.11,1.65-2.73,4.74-5.29,3-4.54-3.12-9.69-1.84-14.45-3-4.44-1-7.91-3.74-11.36-7,10-2.31,19.32.15,28.59,2.94C970.64,1504.15,973.09,1505.34,971.5,1507.7Zm-6.26-19.8c6.22-.69,10.67-.51,13.81,4.5C974.64,1491.92,969.74,1492.8,965.24,1487.9Zm15-98.6c-8.34,9-18,17.42-24,27.83C946,1434.58,929.61,1446.8,919.4,1464c-1,1.75-2.8,4-5.59,2.93a4.32,4.32,0,0,1-2.45-4.83c1.71-9.49-9.07-16.06-5.83-26,.71-2.21-2.78-3.31-4.25-5-5.35-6.09-10.43-12.37-12-20.66-.68-3.46.41-5.23,4.2-4.7,17.12,2.37,30.57-5.14,42.72-16,7.71-6.91,15.33-13.91,23-20.87,2-1.81,4.25-4.43,6.64-1.15,3.74,5.14,7.61,4.1,11.88,1.15a8.28,8.28,0,0,1,5.41-1.61c3.53.24,4.53,2.66,4.36,5.59A25.68,25.68,0,0,1,980.21,1389.3Zm6.44,192.12c-.86-1.59-1.5-3.92-1-5.52,2.16-7,1-13.55-1.64-20.09-.75-1.87-.58-4,1.25-5.15a4.14,4.14,0,0,1,5.35.31c6.65,7.25,14.6,13.69,15.31,24.72.63,9.76,1.58,19.51,2.57,31.39C997.45,1599.84,991.75,1590.85,986.65,1581.42Zm207.46,41.28c-3.84,4.36-7.54,8.57-14.58,6.76-2.25-.58-5.25.94-7.69,2-19.12,8.22-39.08,13.55-59.4,17.68-11.48,2.34-22.81,3.08-33.63-3-6-3.34-11.82-7.21-19.27-6.87-1.62.08-3.3-1.8-5-2.66-20-10.1-29.15-28-33.33-48.65a133.73,133.73,0,0,0-7-24.2c-3.77-9.28-3.57-18.77-3.51-28.43,0-5,3.69-9.12,3.64-14.35-5-.87-6.47,4.72-11.17,4.56,2.85-12.67,7.54-24.73,9.52-37.48.85-5.5,2.62-11.08,9.12-13.28,1.61-.55,3.06-2.48,3.92-4.12,3.33-6.33,9-8.66,14.59-10.25,5.76,10.17.16,16.53-5.87,22.76a5.23,5.23,0,0,1-.82.81c-7.83,4.93-6.1,13.5-7.87,20.72a1.81,1.81,0,0,0,1.73,2.43c3.68-.15,3.44,1.58,2.61,4.27-1.24,4-2,8.22-3.15,12.27-3.83,13.35.49,24.75,8.33,35.29,2.07,2.78,4.34,5.55,8,6.36,2.35.52,3.86-.58,3.27-3.09-.34-1.43-1.5-2.65-2.25-4-12.69-22.9-4.91-40.55,10.15-58.91,13.63-16.63,33.61-20.22,54.38-18.41,4.55.39,9,1.89,13.48,3.08,2.68.72,5.35,1.48,7.69-.5,6.94-5.86,13.24-3.15,18.22,2.29,2.62,2.87,7.08,3.13,8.92,7.29-2.3.91-4.71,1.3-6.36,2.63-3.84,3.11-6.28,3.51-8.76-1.7-2.64-5.57-8.7-6.4-13.9-6.76-15.66-1.08-30.53,1.59-43.69,11-18.06,13-29,40.64-8.84,63.18,2.06,2.31,3.85,4.8,6.73,6.18,13.55,6.48,27.83,9.43,42.68,7.06,9.63-1.53,16.94-6.9,20.48-16.64,1.54-4.24.84-7.17-4.17-10.35-.68,8.67-4.51,14.37-11.42,18.14-9.14,5-17.63,3.31-23.81-5.24a33.81,33.81,0,0,0-7-7.54c-5.36-4-8.65-9.69-11.69-15.54-8.3-16,9.34-32.59,23.09-33.14a4,4,0,0,1,2.7,1.71,2,2,0,0,1-.92,2.92c-3.68,2.08-7.55,3.86-11.15,6.08-6.77,4.18-11.28,18-8.19,24.5,5.32,11.17,24.88,18.41,36.16,13.15,6.78-3.16,10.58-8.71,11.19-16.25.58-7.19-3.41-11.52-9.43-14.35-1.72-.81-3.78-1-5-2.68-1.46-2-1.88-4.37-.23-6.39,2.22-2.72,4.18-.72,5.68.95,2.31,2.56,4.1,5.57,7.2,7.39,1.63,1,3.19,2.66,5.08,1.22,1.71-1.3,1.35-3.45,1-5.38-.59-3.18-3.49-6.25-.33-9.87,5.43.77,8.42,4.86,11.57,8.7,5.82,7.09,7.24,16,10.35,24.29,1.52,4,1.63,8.24,2.11,12.45.75,6.58-7.2,4.87-8.6,9.8,3.84,3,5.35,6.06,4.54,11.6a37.74,37.74,0,0,1-14.55,25.3c-17.39,13.71-38,19.45-56.07,6.11-6.14-4.54-12.48-9-20.58-10.4,7.78,9.58,15.9,18.35,28.12,22.85,17.49,6.43,33.77,3.25,48.69-5.74,12.28-7.4,25.86-14.59,28.78-31.29a3.38,3.38,0,0,1,6.28-1.21c4.85,7,11.86,12.18,15.75,19.86.68,1.36,1.93,2.89,1.73,4.15C1201.16,1610.83,1198.85,1617.33,1194.11,1622.7ZM1118.86,1543c-1.81,1.12-3.47.73-5.22-.5-7.46-5.22-7.69-13.36.44-21.69,1.26,6.84.4,12.87,4.51,17.55C1119.78,1539.68,1121.46,1541.33,1118.86,1543Zm72.31,3.72c-2.32,1.21-4.61-.29-5.94-2.17a42.57,42.57,0,0,1-8-20.14c7.06,5.25,11.4,10.17,14.26,16.38C1192.43,1542.7,1194,1545.2,1191.17,1546.68Zm5.31,14.7c4.14,3.23,4.49,7.83,3.73,12.48-1,5.81-5.12,7.33-10,3.81-8.6-6.22-10.25-14.46-6.59-25.84C1188.7,1555.58,1192.65,1558.4,1196.48,1561.38Zm28.65-60.39c2.77,2.25,5.54,4.69,5.65,9.35C1225,1509,1225.67,1504.66,1225.13,1501Zm18,25.18c-2.89-.6-6.38-.89-6.93-4.64-.32-2.15,1.85-3.15,3.91-3.29,2.92-.2,5.47.46,6.11,3.83C1246.67,1524.32,1245.5,1525.68,1243.16,1526.17Zm41.72,15.45c-.87,2.19-2.67,2.71-4.47,1.17-2.54-2.17-6.28-2.56-8.76-6.21,4.52-.91,7.93-1.21,11.08.39C1284.42,1537.83,1285.74,1539.48,1284.88,1541.62Zm-3.09-79.36c-6.32,2-8.73,7.5-9.25,13.44-.7,8-1.62,16.28,4.9,22.89,1.4,1.42,2.11,3.51.62,5.19-1.85,2.07-3.5.41-4.71-1-1.51-1.82-3-3.68-5.47-3.91-12.56-1.16-18.81-10.93-26.16-19.11-11.3-12.58-22.36-25.5-37.92-33-5.41-2.6-10.46-5.47-13.42-10.41a140,140,0,0,1-17.55-43.6c-.9-4.36-2-8-5.17-11.15s-5.45-6.51-6.06-10.89a4,4,0,0,1,1.81-4c1.74-1.09,2.71.35,3.86,1.36,4.1,3.58,5.24,9.36,9.63,12.71,3.56,2.73,4.78,5.85,1.74,9.85a2.81,2.81,0,0,0,.57,4.12c1.77,1.31,2.62-.39,3.57-1.49,2-2.37,3.52-1.87,5.46.46,7.15,8.58,9,8.7,17,1.87,4.58-3.88,4.85-6,.83-10.44q-15.9-17.43-32-34.69c-1.81-2-4.26-3.46-2.48-7.4,15.13,8.9,25.23,23.28,38.49,34.21,2.41-8.09,4.22-9.28,8.08-4.75,10.91,12.77,26.19,19.49,39.25,29.25a19.8,19.8,0,0,0,8.47,3.41c11.28,1.83,19.49,8.39,27.29,16.16,4.55,4.55,5.2,8.72,2.44,14.42a116.82,116.82,0,0,0-7,18.28C1287.48,1458,1286.14,1460.89,1281.79,1462.26Zm13.85,4.64c4.57-19.19,12.15-36.85,28.63-49.93,7.37-5.84,16.48-7.78,23.55-13.86,2.58-2.21,7.77-2.68,12,1.56-3.77,2.52-7,4.55-10.06,6.75-14.3,10.23-30.44,18.51-38.43,35.53-3.75,8-7.5,16-10.85,24.18-3.48,8.53-3.08,16.75.44,25.69,4.25,10.78,8.85,21.14,15.5,30.83-7.87-2.07-12.37-7.43-16-14C1292.31,1498.68,1291.89,1482.68,1295.64,1466.9Zm45.13-82.73c1.83,1,5.27.86,5.76,3.95s-2.7,3.17-4.67,3.62c-2.63.61-4.29-.76-4.44-3.57C1337.31,1386.11,1337.87,1384.49,1340.77,1384.17Zm31.9,128.51c-2.92,4.79-7.42,7.73-13.61,7-1.8-.21-4.06-.16-4.7,2.26-.59,2.25,1.18,3.53,2.63,4.7a11.9,11.9,0,0,0,4,2.19c5.13,1.54,6.83,4.58,4.72,9.62-2.22,5.33-5.48,7.42-10.89,5.72-4.74-1.5-9.16-4-13.75-6-2.39-1-5.22-3.26-7.33-.54-2.59,3.34.68,5.47,2.74,7.68.69.75.39,1.45-1.69,2.07-10.56-.28-22.25-.51-34.91-7.4,6-2.37,9.62-2,12.85-1.3,8.62,1.81,12.65-4.85,17.25-9.42s-2.53-7-3.67-10.63a21.9,21.9,0,0,0-2.93-6.22c-10.81-15.05-10.35-31.65-6.63-48.58.75-3.39,2-7.38,6.57-8,1.88,2.44.24,4-.35,5.74-4.78,13.71-2.14,26.47,4.84,38.72,2.42,4.24,6.26,5.67,10.73,5.1,4.27-.55,5.14-4,5.43-7.71.09-1.16-.79-3.24,1.73-3.19,9,12.87,19.48,13,28.2.16,2.37-3.48,4.11-7.39,6.34-11,1-1.59.21-5.16,5-3.74A93.23,93.23,0,0,1,1372.67,1512.68Zm-9.82-47.26c5.55,6.42,3.61,12.48.8,18.46a3.36,3.36,0,0,1-2.64,1.65,3.42,3.42,0,0,1-2.33-2.13C1357.18,1476.84,1357.86,1470.75,1362.85,1465.42Zm45.26,20.26c.28,1.36-.56,3-.95,4.46-4.06,15.5-14.83,26.6-25.15,37.94-1,1-3,2.58-4.74.48.15-2.24,1.78-3.44,3-4.82,17.4-19,21.46-41.79,18.94-66.46-.38-3.79-1.76-6.81-6.16-6.93s-6.06,2.83-6.67,6.52c-.24,1.44.65,3.07.43,4.53-.53,3.48-.21,7.34-2.84,10.31-3.45-2.18-2.68-5.13-3.2-7.65-1.67-8.2-3.18-9-11.63-9.4-6.62-.3-12.06,2.92-18.21,4.75,5-9.22,10.77-17,22.69-15.52,3.4.42,6.26.71,6.92-3.58.5-3.25.06-6.84-3.37-7.73-7.28-1.88-14.72-5.45-22.3-1a17.21,17.21,0,0,1-8.36,2.38c3.89-6.84,10.69-9.19,17.66-11.28,6.53-2,11.53,1.31,16,5.79,6.39-12.26,6.29-12.92-2.5-19.81-.6-.47-1.44-.65-1.94-1.19-1.71-1.81-.67-3.56.42-5.14a2.32,2.32,0,0,1,3.88-.33c4.85,4.83,13.45,6.47,13,15.87a7.61,7.61,0,0,0,3.94,6.72c9.72,5.45,10.94,14.88,11.79,24.58C1409.88,1461.33,1405.62,1473.42,1408.11,1485.68ZM1367.92,1402a1.89,1.89,0,0,1,1.09.15c.87.53.82,1.24-.19,1.51-.6.16-1.34-.22-2-.35C1366.6,1402.5,1367,1402,1367.92,1402Zm40.44,10.25c-.9-.28-1.22-.88-.8-1.73a1.31,1.31,0,0,1,.87-.58c.88-.14,1.56.35,1.38,1.16C1409.7,1411.52,1408.87,1411.82,1408.36,1412.2Zm7.58,15.52,11.55,3.53C1417.43,1436,1417.43,1436,1415.94,1427.72Zm9.9,33.7c-2.59.45-4.68-.52-5-3.33-.44-3.39-1-6.85.64-10.83,4.12,1.88,7.12,4.48,7.81,9C1429.61,1458.78,1428.63,1460.94,1425.84,1461.42Zm14.36-69.35c-10.58-1.61-21.52-.94-31.71-5.26-3.9-1.65-8.15-3.36-12.59-1.84.27,5,5.76,4.71,6.38,8.47-6.72,3.65-6.94,4-11,1.26a41.39,41.39,0,0,0-19.4-6.84,15.06,15.06,0,0,1-8.45-3.46c-6.32-5.43-14.1-7.69-21.58-10.68-9.29-3.73-18.7-7.22-27.33-12.4a256.56,256.56,0,0,0-30.58-16c-6-2.6-12-6.51-15.33-12.15.61-2.82,2.22-3,3.71-3.28,2.68-.57,5.57-1,5.72-4.56.11-2.76-2.34-3.69-4.27-4.91-3.24-2.07-6.41-4.27-9.7-6.25-3.48-2.1-7.28-5.79-6.75-8.74.92-5.11-2.59-9.18-2.38-13.5,5.14-2.22,6.64,3.63,9.55,3.26,10.29-1.3,19.87,2.53,29.78,3.65,17.1,1.92,33.8,7.13,51.32,6.09a19,19,0,0,1,8.89,2.1c9.87,4.77,20.63,6.08,31.11,8.38,4.67,1,9.57,1.53,15.67-1-7.8-6.15-16-7.47-23.8-10-11-3.6-22.92-1-33.84-6.21-10-4.77-20.21-9.34-31.4-11.21-2.94-.49-6.65-1.63-8.27-5.38,3.32-3.5,7.16-2.6,10.84-1.7,2.63.65,5.71,2.31,7.65.07,5-5.82,10.55-4.93,16.6-2.37,2,.87,4.9,2.06,5.81-1,.84-2.8-1-5.43-3.83-6.26-5.17-1.53-10.24-3.24-15.31-5.08-16.26-5.92-31.28-14.82-48-19.73-2.27-.67-5.5-1.07-5.69-5.41,10.34.16,20.11-.94,30.49,3.29,13.06,5.32,27.26,7.89,40,14.42,9.77,5,20.13,6.73,31.06,7.51,18.33,1.32,35.51-7.12,53.78-5.37,1.35.13,2.81-1,4.23-1.6,11.81-4.58,23.73-2.29,36-.8-3,3.94-5.89,7.35-10.92,7.52-3.17.1-6.28.42-8.27,3.22-4.85,6.86-11.83,6.54-18.78,5.34-5.76-1-11.41-1.73-17.2-.71-12.9,2.28-25.85,4-39,3.61a40.2,40.2,0,0,0-8,.58c-1.88.33-3.87,1.23-3.63,3.69s1.63,4.84,4.39,4c4-1.2,6.61,1,9.49,2.88a18.89,18.89,0,0,0,14.51,2.39c15.43-3.57,31.1-4.46,49.32-5.18-5.27,13.7-5.53,27.06-5.19,40.48,0,1.54,0,3.09-.06,4.62-.57,8-1.16,8.27-9,7.31-13.3-1.64-26.56-.43-41-.33,1.85,4.06,3.84,5.63,6.46,6.53,10.91,3.79,21.89,7.47,33.34,9.1,4.39.62,7.71,2.44,11.46,4.57,11.3,6.43,10.74,19,15.77,28.58,1.35,2.58-.73,4.46-3.13,5.11C1445.55,1391.67,1442.73,1392.46,1440.2,1392.07Zm22.84,45.76c-4-1.59-7.42-.26-11.15.42-3.19.59-6.68,1-9.82-3.27a142,142,0,0,1,30-.32C1469.61,1439.37,1466.1,1439.05,1463,1437.83Zm44.17-.24a2.89,2.89,0,0,1-4-1,1.2,1.2,0,0,1,.69-1.89c1.46-.52,3.12-.84,4.25.38C1509.13,1436.05,1508.23,1437.1,1507.21,1437.59Zm9.16-30.77a37.84,37.84,0,0,1-30.26-1.65c-5.91-2.85-7.71-9.41-11.73-14-10.74-12.29-7.6-26.88-7.41-41,4-.36,5.12,1.63,5.76,3.17,5.11,12.23,14,20.78,24,29.49,16,14,27.51,11.06,37.21-5.63a20.51,20.51,0,0,0,1.88-4.2c8.37-27.43,6.51-53.77-8.27-78.79-1.9-3.22-5.2-5.82-5-11.33,8.86,2.94,13.35,9.05,15.47,16.67,2.38,8.57,5.91,16.63,9.54,24.67a19.73,19.73,0,0,1,2.15,6.51c1.64,20.41-1.16,39.9-11.72,57.88A41.09,41.09,0,0,1,1516.37,1406.82Z" transform="translate(-468.65 -344.63)"/><path d="M979.09,828.57c6.17-16.81,4.74-36.41,7.1-53.84a158.18,158.18,0,0,1,11-39.68c-9.88,11-19.19,22.37-26,35.63-8.89,17.3-12.9,34.43,2.18,51.05A82.71,82.71,0,0,1,979.09,828.57Z" transform="translate(-468.65 -344.63)"/><path d="M700.66,1474.62c-.2-3.07.26-6.2-.14-9.24-3.2-24.35,10.87-39.57,28-53.1,3.75-3,8.32-3.9,13.09-3.75,7.69.24,15.39.3,23.07.74,3.77.22,5-1.28,4.27-4.72-1.14-5.12-3.33-8.92-9.14-10.57-14.39-4.09-27.58-.44-39.85,6.32a61.25,61.25,0,0,0-25,26.5c-4.08,8.12-7.64,16.66-8.09,25.93-.35,7.3.28,14.66-.13,22-.3,5.54,2.93,9.4,5.13,13.81.69,1.39,1.5,2.91.4,4.25-1.55,1.88-3.59,1.06-5.23.12-11.65-6.62-17.72-17.47-18.45-30.06-.86-14.87.24-29.8,7.8-43.63,2.7-4.94,5.56-8.77,10.14-12,10.06-7,19.71-14.67,29.61-22a28.32,28.32,0,0,1,11.66-4.73c6.19-1.22,13.66,1.44,18.08-5.91.58-1,3.64-.59,5.55-.61,13.84-.1,27.73-.8,41.33,2.8,17.34,4.59,33.66,10.36,43.28,27.53,2.29,4.08,6.44,7.49,9.27,11.6,1.58,2.31,3.11,4.76,6.37,2.35,2.77-2,4.27-4.71,2.3-8-3.78-6.25-7.23-12.83-11.85-18.42A92.23,92.23,0,0,0,814.85,1369a32.26,32.26,0,0,0-7.47-3c-16-4-32.2-7.26-48.7-8-10.38-.44-20.87.66-30.39,5.41-12.35,6.16-26.62,7.26-38.4,15-3.52,2.32-7.38,4.07-10,7.46-18.26,23.15-25.31,49.87-22.58,78.72,1,10.9,7,21.07,13.83,30.16,1.74,2.33,4,3.31,6.62,4.26,7.91,2.9,15.33,6.93,23.32,9.79,6.31,2.26,10.7,8.27,17.49,10.74,8.17,3,16.19,2.19,24.56,1.42-7.63-5.89-16.31-8.95-24.15-13.75C706.37,1499.65,701.56,1488.4,700.66,1474.62Z" transform="translate(-468.65 -344.63)"/><path d="M814.81,1494.1c-1.31-17.75-9.26-32.24-23.36-43.2a14.92,14.92,0,0,0-5.08-2.59c-4-1.09-6.73,1.13-6.89,5.3s2.14,7.07,5.18,9.75a58.35,58.35,0,0,1,13.42,17c4.11,7.91,3.59,16.45-1.61,23.26-3.29,4.31-7.74,4.83-12.42,4.21a57.22,57.22,0,0,1-17.68-4.91c-1.42-.69-2.93-1.21-4.24.07-1.58,1.54-1.31,3.53-.7,5.37a8.27,8.27,0,0,0,1.86,2.85c4.56,4.91,20,11,27.12,10.8C804.11,1521.61,815.88,1508.56,814.81,1494.1Z" transform="translate(-468.65 -344.63)"/><path d="M726.31,1163c1.08-2.34,1-4.67-1.5-5.92-15.42-7.53-30.52-16-48.34-16.48-2.2,0-4.7-.27-6.15,2.45a11.6,11.6,0,0,0,5.71,6.5c13,7.26,26.33,13.68,40.84,17.43C721.3,1168.12,724.38,1167.16,726.31,1163Z" transform="translate(-468.65 -344.63)"/><path d="M754.34,1475.18c-4.53-4.56-6.92-9.15-2.44-15.09,1.75-2.33,2.43-4.81-.23-7.1-2.95-2.52-5.76-1.4-8.36.48-6.47,4.69-8,18.63-2.57,25,5.83,6.82,13,10.5,23.2,7.92C761.35,1481.09,757.53,1478.39,754.34,1475.18Z" transform="translate(-468.65 -344.63)"/><path d="M468.65,1302.09c6.18,2.66,12.35,4.91,19.12,4.68a15.65,15.65,0,0,1,12.27,4.64c6.25,5.89,10.17,5.18,16.69-1.58-11.1,0-18.92-8-29.33-8.93C481.06,1300.34,474.88,1299.2,468.65,1302.09Z" transform="translate(-468.65 -344.63)"/><path d="M1425.42,1514.6c-1.54,8.53-6.7,14.28-12.11,20.26-3.42,3.78-8.53,6.46-9,12.36,8.49-1.86,13.06-9,17.79-14.94,7.16-8.94,8.79-20.5,12-31.2l-2.32-.93C1429.52,1505,1426.32,1509.57,1425.42,1514.6Z" transform="translate(-468.65 -344.63)"/><path d="M1279,1609.89c-9.27,1.65-19.08,3.38-28.88,5.16-1.65.3-2.86,1.43-2.64,3.16.37,2.82,2.46,2.15,4.38,1.91q14.27-1.81,28.53-3.49c2.7-.31,6.51-.39,6.44-3.45C1286.73,1608.62,1282.24,1610.71,1279,1609.89Z" transform="translate(-468.65 -344.63)"/><path d="M1425.17,1599c-2.84-1.07-5.83-1.75-7.71-2.29-5.6.82-10.13,1.41-14.63,2.18-1.09.18-2.31,1-2,2.29a4.93,4.93,0,0,0,1.68,2.72,6.23,6.23,0,0,0,3.17,1.13c5.68.5,11.43,0,17,1.88a4.37,4.37,0,0,0,5.63-2.72C1429.33,1601.38,1427.4,1599.79,1425.17,1599Z" transform="translate(-468.65 -344.63)"/><path d="M643.46,1152.7c1.41-1.81-.2-3.44-1.36-4.91-1.41-1.77-2.73-3.61-4.15-5.37a3.48,3.48,0,0,0-4-1.39c-1.7.52-2.13,1.93-2.46,3.6-.17,4.15,2,7,5.7,8.78C639.33,1154.41,641.86,1154.76,643.46,1152.7Z" transform="translate(-468.65 -344.63)"/><path d="M764.09,1461.53a4.16,4.16,0,0,0,1,6.08,12.72,12.72,0,0,0,8.3,2.33,8.58,8.58,0,0,0-3.31-8.69C768.11,1459.67,765.74,1459.17,764.09,1461.53Z" transform="translate(-468.65 -344.63)"/><path d="M575.92,1338.28c8.1,5,14-.88,20.11.07C589.7,1332.09,583.92,1336.85,575.92,1338.28Z" transform="translate(-468.65 -344.63)"/><path d="M1348.24,1604.25c6.46,5.14,11.8,2.16,16.83,1.59C1360.38,1602.29,1355.39,1602.82,1348.24,1604.25Z" transform="translate(-468.65 -344.63)"/><path d="M1377.92,1605.12c5.74,3.48,10.64,1.28,17.34-2.14C1387.8,1600.05,1383,1604,1377.92,1605.12Z" transform="translate(-468.65 -344.63)"/><path d="M674.52,1173.29a6.65,6.65,0,0,0,6.47,3.44c1.47-.26,2.52-.89,2.28-2.24-.61-3.35-3.26-3.86-6-3.79C675.69,1170.74,673.69,1171.63,674.52,1173.29Z" transform="translate(-468.65 -344.63)"/><path d="M1228.84,1625.53c5.82.06,9-1.2,12-5C1235.32,1618.18,1232.3,1620.33,1228.84,1625.53Z" transform="translate(-468.65 -344.63)"/><path d="M1340,1603.42c-1.55.23-3.19.66-3.2,2.5,0,1.26,1.45,1.47,2.54,1.43,1.53,0,3.27-.2,3.15-2.28C1342.39,1603.84,1341.13,1603.48,1340,1603.42Z" transform="translate(-468.65 -344.63)"/><path d="M1299.91,1608.52c-.49.28-.63,1.18-.92,1.8a2.22,2.22,0,0,0,2.73,1.15c1.18-.32,1.85-1.26,1.14-2.37A2.16,2.16,0,0,0,1299.91,1608.52Z" transform="translate(-468.65 -344.63)"/><path d="M1403.85,1547.63l.35-.06c0-.13,0-.23.06-.35s-.2.07-.31.09S1403.89,1547.52,1403.85,1547.63Z" transform="translate(-468.65 -344.63)"/><path d="M1399.12,1550.65c1,1.79,2.66,1,3.66-.25a8.29,8.29,0,0,0,1.07-2.77,17.76,17.76,0,0,0-2.93.64C1399.85,1548.65,1398.54,1549.66,1399.12,1550.65Z" transform="translate(-468.65 -344.63)"/><path d="M538.93,1308.2c-.31-.06-1.2.85-1.14,1.16.36,1.66,1.77,1.72,3.08,1.88C540.67,1309.94,540.6,1308.52,538.93,1308.2Z" transform="translate(-468.65 -344.63)"/><path d="M540.87,1311.24a2.51,2.51,0,0,0,0,.27l.54.51c-.1-.25-.21-.5-.31-.74Z" transform="translate(-468.65 -344.63)"/><polygon points="312.82 1246.08 313.69 1245.58 312.75 1245.22 312.82 1246.08"/><path d="M609.92,1441.42l.74-.33-.24-.24Z" transform="translate(-468.65 -344.63)"/><path d="M924.12,1326.19a5.59,5.59,0,0,0-5.67-3.15c-5.08.25-8,4.43-11.84,6.77-7.85,4.72-15.43,9.91-22.92,15.19-2,1.42-4.91,3.54-3.08,6.56,1.34,2.21,4.18,1.45,6.39.71,12.49-4.14,23.31-11.55,34.54-18.09C924.2,1332.63,925.86,1329.65,924.12,1326.19Z" transform="translate(-468.65 -344.63)"/><path d="M806,1298.5c-6.65,1.86-12.65,5.17-18.48,8.73-1.68,1-3.87,2.91-1.17,5.7,6.71-4.09,15.1-4.25,21.54-9.24,1.57-1.21,3.36-2.28,2.26-4.43C809.33,1297.68,807.45,1298.1,806,1298.5Z" transform="translate(-468.65 -344.63)"/><path d="M854.18,1307.33c-.94,4.78-5,8.43-5,14.57,5.59-.07,8.25-3,11-5.4s3.18-5.93,1.09-9.25C859.42,1304.26,854.81,1304.16,854.18,1307.33Z" transform="translate(-468.65 -344.63)"/><path d="M894.93,1315.77c2.54-.16,4.51-1.38,4-4.23-.59-3.09-2.74-4.62-5.8-3.2a12.43,12.43,0,0,0-6.2,5.57C889.68,1316.56,892.38,1315.93,894.93,1315.77Z" transform="translate(-468.65 -344.63)"/><path d="M829.18,1327.89a11.91,11.91,0,0,0,1.63.83c.1,0,.63-.62.57-.75a9.61,9.61,0,0,0-1.06-1.43Z" transform="translate(-468.65 -344.63)"/><path d="M786.47,1301c-.48-1.09-1.37-1-2.22-.94a12,12,0,0,0,1.35,1.23C785.74,1301.43,786.17,1301.14,786.47,1301Z" transform="translate(-468.65 -344.63)"/><path d="M783.75,1300.09a2.78,2.78,0,0,0,.5,0l-.28-.25Z" transform="translate(-468.65 -344.63)"/><path d="M1034.53,1467.56l-1.3.15c.23.12.48.36.7.34S1034.33,1467.73,1034.53,1467.56Z" transform="translate(-468.65 -344.63)"/><path d="M1350.4,1325.49c-7.88-.87-15.74-1.89-23.6-2.85-1.09-1-2.25-.88-2.9.26-1.28,2.25-.75,4.45.62,6.46.93,1.39,2.6,2.3,3.93,1.38,9.6-6.62,16.44-.77,23.15,5.09,2.24,2,4.11,3.8,6.7,1s1.8-5.62-.69-8.12A11.48,11.48,0,0,0,1350.4,1325.49Z" transform="translate(-468.65 -344.63)"/><path d="M1390.59,1360.39c-2.84-.2-7.08-1.78-8,1.93-1,4.19,3.78,3.45,6.19,4.89,7.16,4.3,15,4.34,22.91,4.63-5.24-3.78-11.2-5.37-15.76-9.67C1394.69,1361,1392.44,1360.52,1390.59,1360.39Z" transform="translate(-468.65 -344.63)"/><path d="M1276.39,1303.44c-.85.26-1.06.88-.68,1.71l1.83.25a9.94,9.94,0,0,0-.18-1.82C1277.33,1303.45,1276.69,1303.34,1276.39,1303.44Z" transform="translate(-468.65 -344.63)"/><polygon points="851.56 1005.62 852.02 1006.38 852.74 1006.81 852.26 1006.15 851.56 1005.62"/><path d="M1240.35,1408.65c-3-1.76-7-3.49-11.33-.4,2.17,6.62,8.62,9.35,12.8,14.06,5.68,6.4,13.24,10.46,19.49,16.14,2.26,2.06,4.82,2.53,7.06-.1,1.7-2,2-4.57.2-6.33C1259.82,1423.44,1251,1414.81,1240.35,1408.65Z" transform="translate(-468.65 -344.63)"/><path d="M753.31,1243.38a14.66,14.66,0,0,0-2.92-3.53c-6.65-5.51-27.16-6.63-34.9-1.89a56.63,56.63,0,0,1-32.6,8.79c-4.51-.19-11.83-2.93-12.78,3.09-.72,4.63,7.12,4.24,11.1,6.16,2,1,4.42,1.32,6.54,2.2,7.22,3,13.71,2,20.93-1.29,8.15-3.75,16.32-8.65,27-7.85,4,.58,8.85,1.78,13.78,1.88C754.69,1251.05,756.12,1247.85,753.31,1243.38Z" transform="translate(-468.65 -344.63)"/><path d="M642.1,1251.46c-4,.15-8.61,1-8.94,5.28-.34,4.55,4.18,5.69,8.15,5.93,4.88.31,8.49-2.22,8.13-5.79C649,1252.57,645.91,1251.43,642.1,1251.46Z" transform="translate(-468.65 -344.63)"/><polygon points="886.57 859.69 887.35 859.2 886.45 858.91 886.57 859.69"/><path d="M1109,1377.48c.53.85,1.69,1.31,2.29,1.75,3.82,0,5.53-4.91,3.55-8.88q-9.06-18.18-18.11-36.37a30.41,30.41,0,0,1-1.84-4.13c-.59-1.84,2.34-5.4-1.35-5.41-4,0-4.8,4.34-3.51,7C1097.3,1346.39,1100.11,1363.19,1109,1377.48Z" transform="translate(-468.65 -344.63)"/><path d="M1098.38,1311.69c-.82,0-1.67-.11-2.17.87.29.1.69.38.84.28A13.21,13.21,0,0,0,1098.38,1311.69Z" transform="translate(-468.65 -344.63)"/><path d="M1098.7,1311.42l-.32.27a4.64,4.64,0,0,0,.53,0Z" transform="translate(-468.65 -344.63)"/><path d="M860.06,856.7c-.35,6.33,0,12.69,0,21.79,15.7-39.1,20.59-75.73,8.87-114.15-9.7-31.79-16.11-64.51-6.17-97.57,9.63-32,10.84-63.92,4.72-96.71-4.79-25.71-1-50.88,9.82-74.91-1.63,32.56.42,64.47,12.16,95.19.87,2.29.71,4.95,1.13,7.42,4.87,28.9-.26,57.62-1.61,86.39-1.27,27.28,4.64,52.13,24.83,72.61-2-4.93-4-9.85-6-14.79-8.71-21.88-12-44.32-7.15-67.65a209.5,209.5,0,0,0-6.12-110.22,196.29,196.29,0,0,1-8.58-87.92c1.68-12.85,1-25.78-3.75-41.72-5,23-7.6,43-16.07,61.4-12.83,27.79-16.76,56.76-12.52,87,3.57,25.32,2.32,50.1-8.58,73.75-11.62,25.23-12.2,50.52-2.42,76.71C857.43,773,862.35,814.4,860.06,856.7Z" transform="translate(-468.65 -344.63)"/><path d="M951.75,722.16a212.42,212.42,0,0,0,5.73-63.51C956,630,963.74,604.14,977,579.37c9-17,18.55-33.72,27.07-50.94,10.86-21.95,12.05-44.18-.86-66-14.16-23.9-15.77-49.81-12.43-76.53,1.67-13.3,2.33-26.58-.72-41.3-17.11,35.78-27.34,71.06-20.18,110.23,3.84,21-2.17,41.62-13.13,60.2q-10.51,17.82-21.87,35.14c-12.87,19.7-17.23,41.16-10.39,63.5C935.37,649.4,945.41,685.24,951.75,722.16Zm9.07-186.77c18.51-29,18.13-61.83,13-94.86-3.48-22.46.86-43.71,12.69-63.45.3,15.3-1.64,30.48.47,45.69,2.32,16.67,7.15,32.69,11.53,48.82,6.74,24.79,3,48.05-9.18,70.26-5.85,10.63-11.81,21.2-17.73,31.79-17.11,30.57-15.62,64.53-17.89,97.82-.26,3.85,1.3,8.23-2.86,12.32C939.08,632.79,930.25,583.31,960.82,535.39Z" transform="translate(-468.65 -344.63)"/><path d="M1032.58,923.6c3-29.12,5.93-58.27,7.92-87.47,2.75-40.53,18.36-77,33.91-113.63,10.93-25.71,16.36-52.37,13-80.51-6,19.48-10.55,39.41-20,57.66-9.63,18.57-18.55,37.52-28.37,56-12.32,23.16-17.48,47.62-16.34,73.78,2.13,48.7,6.78,97.39,1.47,146.19C1028.93,958.54,1030.79,941.05,1032.58,923.6Z" transform="translate(-468.65 -344.63)"/><path d="M749.48,904c7.53,28.67,10.3,58,13.78,89.51,3.63-7,3.44-13.35,7.44-17.76-4.17-3.82-6-8.63-7-14.17-5.22-28-9.41-56.24-16.47-83.75-14.3-55.69-14.37-109.67,10.06-163.09A309.44,309.44,0,0,0,782.39,632c2.33-15.63,12.14-31,3.21-47.13a6.45,6.45,0,0,0-.66,1.76c-6.59,49-19.42,96-45.91,138.3C715.82,762,712.4,800.72,726.76,841.56,734.11,862.45,743.83,882.42,749.48,904Z" transform="translate(-468.65 -344.63)"/><path d="M985.28,685.48c2.08,16.12,5,32.35,2.33,48.88,12-13.86,23.87-27.88,36.17-41.49,4-4.45,3.14-7.93.38-12.21-12-18.67-13.5-39-10.19-60.43,2.83-18.39,5.55-36.94,2.57-55.83-2.23,26-11.88,49.36-23.62,72.21C985.09,651.83,983.07,668.3,985.28,685.48Z" transform="translate(-468.65 -344.63)"/><path d="M983.4,919.46c8.48-33.68,5.76-65.62-16.22-94.07-8.4-10.88-17.16-21.48-25.76-32.2,5.15,13.69,12,26.09,16.75,39.52,15.69,44.37,11.85,88.87,1.14,133.45-5,20.94-6,41.73,2.4,62.2-1.79-25.16,3.81-49.1,11.1-72.81C976.5,943.56,980.34,931.6,983.4,919.46Z" transform="translate(-468.65 -344.63)"/><path d="M882.2,967.78c11.54-21.12,24.18-42.14,23.92-67.72-13.61,33.56-33.78,63.47-50.3,95.3-9.7,18.67-15.17,39-17.65,59.9-1.91,16.09-.76,31.84,6.46,47.57a24.43,24.43,0,0,1,3.85,5,33.93,33.93,0,0,1,1.59,4.38,1.42,1.42,0,0,1,.2,0c0-14.86-.24-27.43.05-40C851.18,1034.52,864.32,1000.54,882.2,967.78Z" transform="translate(-468.65 -344.63)"/><path d="M770.7,975.48l0,.18,0,.07v0l.1.1C770.76,975.73,770.74,975.6,770.7,975.48Z" transform="translate(-468.65 -344.63)"/><path d="M781.41,836.2c-12.3-38.12-9.8-76.56,1.18-114.93a150.93,150.93,0,0,0,6.19-44.62c-6.65,25.85-12.93,48.36-18.16,71.11-6.28,27.33-7.74,55.29,1.71,81.84,13.49,37.93,13.82,75,1.31,113-3.39,10.31-6.61,21.5-2.94,32.83,1-4.88,1.54-9.91,3.32-14.44C790.08,920.2,795.26,879.11,781.41,836.2Z" transform="translate(-468.65 -344.63)"/><path d="M851.11,969.15c8.71-29.95,22.19-57.62,38-84.33,20-33.91,19.09-68.24-1.29-102.55,1,7.84,1.41,15.81,3.13,23.49,5.48,24.5,1.15,47.38-10.22,69.31-5.2,10-10.49,20-15.54,30.12C855.12,925.26,851.46,946.79,851.11,969.15Z" transform="translate(-468.65 -344.63)"/><path d="M1189.55,995.91c6.91,19.15,10.41,38.52,8,58.94-.76,6.46-1,13.27,2.31,20.49,1.41-6,2.21-11.17,3.89-16.09,7.62-22.32,6.85-44-2.45-65.88-7.76-18.23-11.18-37.49-7.67-60.78C1181.52,955.42,1182.23,975.65,1189.55,995.91Z" transform="translate(-468.65 -344.63)"/><path d="M1293.29,1023.42c.58-15,5.54-28.59,12-41.88,5.86-12.08,10.47-24.67,11-38.28,1-26.06-6.27-51.48-5.68-77.59-6.16,8.65-5.79,18.33-6,27.85-.22,10.88-.57,21.78-3.77,32.24-1.9,6.22-3.3,14.9-11.59,14.19-7.84-.67-6.81-9.13-7.76-15.13-.09-.55-.69-1-1.51-2.16,0,4-.34,7.37.08,10.64.7,5.45,1.81,11.35,7.87,13.14,5.83,1.72,8.71-3.57,12.27-7,5.07-4.87,5.16-12.6,10.62-19.89,3,18.74,2.12,34.34-5,49.76-7.9,17-14.8,34.6-12.5,54.12v.06h0A.2.2,0,0,1,1293.29,1023.42Z" transform="translate(-468.65 -344.63)"/><path d="M881.17,746.39c-11.68-42.43-1.45-85.14-1.95-127.7C866.74,661.42,862.37,704.05,881.17,746.39Z" transform="translate(-468.65 -344.63)"/><path d="M949.3,582.76c-3.35,15.38-3.16,38.37.35,52.25,3.31-32.18,9.47-62.22,23-91.55C953.66,551.29,952.57,567.72,949.3,582.76Z" transform="translate(-468.65 -344.63)"/><path d="M802.57,1589.18l.46-.2c-4.12-.08-8.37-.13-12.54-.16C796.44,1589.74,800.91,1590,802.57,1589.18Z" transform="translate(-468.65 -344.63)"/></svg>